HIERARCHY
ROOT Hips
{
	OFFSET 0.00 0.00 0.00
	CHANNELS 6 Xposition Yposition Zposition Xrotation Yrotation Zrotation
	JOINT LeftUpLeg
	{
		OFFSET 3.34807 0.00000 0.00000
		CHANNELS 3 Xrotation Yrotation Zrotation
		JOINT LeftLeg
		{
			OFFSET 0.00000 -16.98552 0.00000
			CHANNELS 3 Xrotation Yrotation Zrotation
			JOINT LeftFoot
			{
				OFFSET 0.00000 -16.83686 0.00000
				CHANNELS 3 Xrotation Yrotation Zrotation
				JOINT LeftToeBase
				{
					OFFSET 0.00000 -1.59599 5.95633
					CHANNELS 3 Xrotation Yrotation Zrotation
					End Site
					{
						OFFSET 0.00000 0.00000 2.95275
					}
				}
			}
		}
	}
	JOINT RightUpLeg
	{
		OFFSET -3.34807 0.00000 0.00000
		CHANNELS 3 Xrotation Yrotation Zrotation
		JOINT RightLeg
		{
			OFFSET 0.00000 -16.98552 0.00000
			CHANNELS 3 Xrotation Yrotation Zrotation
			JOINT RightFoot
			{
				OFFSET 0.00000 -16.83686 0.00000
				CHANNELS 3 Xrotation Yrotation Zrotation
				JOINT RightToeBase
				{
					OFFSET 0.00000 -1.59599 5.95633
					CHANNELS 3 Xrotation Yrotation Zrotation
					End Site
					{
						OFFSET 0.00000 0.00000 2.95275
					}
				}
			}
		}
	}
	JOINT Spine
	{
		OFFSET 0.00000 0.03937 0.00000
		CHANNELS 3 Xrotation Yrotation Zrotation
		JOINT Spine1
		{
			OFFSET 0.00000 7.93124 0.00000
			CHANNELS 3 Xrotation Yrotation Zrotation
			JOINT Neck
			{
				OFFSET 0.00000 8.48368 0.00000
				CHANNELS 3 Xrotation Yrotation Zrotation
				JOINT Head
				{
					OFFSET 0.00000 6.65077 0.00000
					CHANNELS 3 Xrotation Yrotation Zrotation
					End Site
					{
						OFFSET 0.00000 4.52755 0.00000
					}
				}
			}
			JOINT LeftShoulder
			{
				OFFSET 0.00000 8.48368 0.00000
				CHANNELS 3 Xrotation Yrotation Zrotation
				JOINT LeftArm
				{
					OFFSET 7.74502 -0.00003 0.00000
					CHANNELS 3 Xrotation Yrotation Zrotation
					JOINT LeftForeArm
					{
						OFFSET 12.49824 -0.00005 0.00000
						CHANNELS 3 Xrotation Yrotation Zrotation
						JOINT LeftHand
						{
							OFFSET 9.88337 -0.00004 0.00000
							CHANNELS 3 Xrotation Yrotation Zrotation
							JOINT LeftHandThumb
							{
								OFFSET 0.00000 0.00000 0.00000
								CHANNELS 3 Xrotation Yrotation Zrotation
								End Site
								{
									OFFSET 0.00000 0.00000 3.93700
								}
							}
							JOINT L_Wrist_End
							{
								OFFSET 3.93700 -0.00001 0.00000
								CHANNELS 3 Xrotation Yrotation Zrotation
							}
						}
					}
				}
			}
			JOINT RightShoulder
			{
				OFFSET 0.00000 8.48368 0.00000
				CHANNELS 3 Xrotation Yrotation Zrotation
				JOINT RightArm
				{
					OFFSET -7.74502 -0.00003 0.00000
					CHANNELS 3 Xrotation Yrotation Zrotation
					JOINT RightForeArm
					{
						OFFSET -12.49824 -0.00005 0.00000
						CHANNELS 3 Xrotation Yrotation Zrotation
						JOINT RightHand
						{
							OFFSET -9.88337 -0.00004 0.00000
							CHANNELS 3 Xrotation Yrotation Zrotation
							JOINT RightHandThumb
							{
								OFFSET 0.00000 0.00000 0.00000
								CHANNELS 3 Xrotation Yrotation Zrotation
								End Site
								{
									OFFSET 0.00000 0.00000 3.93700
								}
							}
							JOINT R_Wrist_End
							{
								OFFSET -5.39369 -0.00002 0.00000
								CHANNELS 3 Xrotation Yrotation Zrotation
							}
						}
					}
				}
			}
		}
	}
}
MOTION
Frames: 16
Frame Time: 0.066664
 -72.0476 35.9380 -6.3942 38.1317 79.9565 -43.4464 10.3187 23.8149 9.7786 10.4170 -0.0000 0.0000 7.8766 -16.2139 0.2291 -44.3772 0.0000 -0.0000 -19.4670 -3.0448 2.3853 13.3493 0.0000 0.0000 6.1673 -0.8513 10.7622 -15.3854 0.0000 -0.0000 -2.2141 -2.4521 -0.8445 13.0547 -5.6588 4.6269 -10.6853 10.6025 4.9098 -9.7719 -7.5104 -1.8934 -11.4578 19.9875 24.7998 -0.8985 -27.6774 -91.6122 -0.0002 -37.1047 -0.0001 -13.8935 -36.1478 28.9381 -0.0000 0.0000 -0.0000 -0.0000 0.0000 -0.0000 15.7429 -14.2188 -6.8027 -34.6926 39.2821 94.5643 -0.0000 2.9028 0.0000 95.7058 -69.4064 -98.0437 -0.0000 0.0000 -0.0000 -0.0000 0.0000 -0.0000
 -69.0961 35.5126 -5.4051 32.3299 81.9895 -38.2251 11.0349 20.4346 12.6583 19.5278 -0.0000 0.0000 12.9479 -12.0647 -1.8532 -51.1129 0.0000 0.0000 -17.5951 -4.9682 4.3342 24.1400 0.0000 0.0000 -1.7957 -3.3637 3.2018 -11.9199 0.0000 0.0000 -3.1985 -2.9913 -0.8674 13.9771 -5.7432 6.0316 -9.8412 10.6345 4.6368 -8.1679 -7.5685 -2.2880 -11.2427 20.1268 25.3004 0.6475 -29.2981 -91.4973 -0.0002 -39.1549 -0.0001 -16.2367 -37.1615 28.2009 -0.0000 0.0000 -0.0000 -0.0000 0.0000 -0.0000 16.2348 -14.3585 -7.0416 -34.0861 39.8915 94.8325 -0.0000 1.1780 0.0000 92.0378 -68.0117 -100.0649 -0.0000 0.0000 -0.0000 -0.0000 0.0000 -0.0000
 -66.0067 35.1249 -4.5305 20.6403 84.6244 -27.7136 5.8768 16.5840 17.0809 39.0827 -0.0000 0.0000 18.3291 -4.9860 -6.3334 -37.1604 -0.0000 0.0000 -9.8433 -7.4504 5.3774 25.6244 -0.0000 0.0000 -9.2516 -0.4851 3.8868 -12.0343 -0.0000 -0.0000 -3.2967 -2.7489 1.3259 13.8743 -5.7867 5.9652 -8.0084 10.0942 3.7613 -8.2996 -7.7296 -3.5825 -10.3200 20.9493 24.7761 3.1549 -32.3685 -89.0519 -0.0002 -41.6249 -0.0001 -14.7196 -37.0492 28.4685 -0.0000 0.0000 -0.0000 -0.0000 0.0000 -0.0000 17.5737 -14.5895 -7.3391 -32.7085 40.1894 94.6409 -0.0000 2.9868 0.0000 88.4025 -66.1494 -102.1361 -0.0000 0.0000 -0.0000 -0.0000 0.0000 -0.0000
 -63.4559 35.5110 -3.9409 12.3587 84.6926 -19.9473 -4.1211 13.0475 18.8528 56.7469 -0.0000 0.0000 19.0805 3.9695 -1.4172 -11.8032 0.0000 -0.0000 -2.3114 -8.2376 6.5274 20.9420 0.0000 0.0000 -7.3359 1.1138 4.1003 -14.2663 0.0000 -0.0000 -2.8915 -1.9328 2.1957 13.4138 -4.9490 6.0667 -7.7120 10.0167 3.8305 -8.1584 -7.4422 -4.8875 -9.7098 23.1321 24.9768 6.1733 -32.8679 -88.2332 -0.0002 -43.2129 -0.0001 -12.2312 -37.4623 30.3235 -0.0000 0.0000 -0.0000 -0.0000 0.0000 -0.0000 17.0933 -13.9085 -8.2322 -33.9634 40.2483 95.8281 -0.0000 1.7752 0.0000 87.3678 -65.2622 -102.3774 -0.0000 0.0000 -0.0000 -0.0000 0.0000 -0.0000
 -61.1728 36.3592 -3.7954 11.5231 84.8141 -17.6001 -13.9331 9.7136 15.1808 62.2763 -0.0000 0.0000 5.0866 7.2283 2.5559 -9.3075 -0.0000 -0.0000 3.9846 -6.3429 5.3921 14.2389 0.0000 -0.0000 0.7149 -0.0640 5.7279 -19.8555 0.0000 0.0000 -1.9008 -1.1286 2.3088 12.9833 -4.7397 4.5829 -9.4087 7.8890 3.3848 -6.2420 -7.9763 -5.2899 -8.7563 24.3347 24.6002 9.4843 -33.8284 -87.1828 -0.0002 -42.3256 -0.0001 -13.5394 -37.3913 28.4008 -0.0000 0.0000 -0.0000 -0.0000 0.0000 -0.0000 14.6559 -13.6000 -9.5416 -35.3048 39.8379 97.7460 -0.0000 2.6019 0.0000 89.0647 -64.9018 -100.1970 -0.0000 0.0000 -0.0000 -0.0000 0.0000 -0.0000
 -59.0044 36.8379 -3.7387 14.6028 84.8730 -19.5924 -21.9048 7.0798 11.5977 53.9146 -0.0000 0.0000 0.2845 1.9602 3.4384 -11.4876 -0.0000 -0.0000 8.0147 -7.2902 3.9822 11.0816 -0.0000 0.0000 7.7225 1.8340 7.1843 -27.9135 -0.0000 0.0000 -0.9646 -0.1585 2.5673 13.2974 -4.3884 2.9739 -9.7418 7.6729 3.2668 -7.1114 -8.5552 -5.9723 -8.3126 24.4527 24.0686 11.2240 -36.6463 -85.7344 -0.0002 -38.2938 -0.0001 -13.5555 -35.0662 23.3397 -0.0000 -0.0000 0.0000 -0.0000 -0.0000 0.0000 11.5528 -12.0969 -10.5766 -35.3822 34.0620 98.1534 -0.0000 3.4436 0.0000 81.4794 -78.9959 -106.6829 -0.0000 0.0000 -0.0000 -0.0000 0.0000 -0.0000
 -56.8490 36.6080 -3.6189 29.3249 83.7343 -33.7533 -27.3130 5.4165 10.0728 33.8539 -0.0000 0.0000 5.0673 -3.4313 1.0558 -13.7067 0.0000 -0.0000 9.7569 -7.3322 3.1569 10.5009 -0.0000 -0.0000 8.1827 2.8257 8.1675 -30.9768 0.0000 -0.0000 -0.9551 0.1613 2.1710 13.4475 -4.1701 2.1546 -10.2690 7.8387 2.9804 -8.2470 -8.5243 -5.8641 -8.0836 24.4281 23.0468 12.8640 -37.5819 -83.6509 -0.0001 -33.7977 -0.0000 -13.1555 -32.4980 19.7491 -0.0000 0.0000 -0.0000 -0.0000 0.0000 -0.0000 9.5924 -10.0466 -10.4613 -37.3377 33.7448 97.8017 -0.0000 5.8949 0.0000 80.7766 -78.4848 -109.4356 -0.0000 0.0000 -0.0000 -0.0000 0.0000 -0.0000
 -54.3145 35.9699 -3.5621 35.2283 81.1967 -40.0133 -29.7568 4.9988 10.6774 14.3563 -0.0000 0.0000 16.2969 -5.2470 -3.6531 -14.6542 -0.0000 -0.0000 12.0807 -5.4288 2.9773 9.7196 0.0000 -0.0000 6.7626 2.2542 9.4757 -31.4691 0.0000 0.0000 -1.7853 0.3386 2.1574 13.6791 -3.9879 1.5989 -11.1732 8.2773 2.5629 -9.3309 -7.6238 -5.2254 -8.3899 24.6258 22.5760 13.8155 -36.1886 -82.3111 -0.0001 -29.1327 -0.0000 -13.0917 -31.8106 18.6458 -0.0000 0.0000 -0.0000 -0.0000 0.0000 -0.0000 8.3616 -8.4588 -10.3371 -40.4461 35.0750 97.8118 -0.0000 7.7493 0.0000 76.1571 -79.3234 -116.4948 -0.0000 0.0000 -0.0000 -0.0000 0.0000 -0.0000
 -50.9393 35.4491 -3.8121 28.4705 78.5620 -32.1621 -31.5902 10.4474 10.2847 16.9869 -0.0000 0.0000 17.0632 -6.7577 -0.9499 -15.3617 -0.0000 -0.0000 14.0452 -4.9677 -0.3214 13.1847 -0.0000 0.0000 9.5764 3.6239 9.6398 -40.1630 0.0000 0.0000 -3.1939 1.0713 2.0796 14.0552 -3.9721 -0.8183 -11.4504 8.9884 2.3146 -9.4602 -6.6407 -4.1156 -8.8942 24.7937 22.3813 13.7178 -32.7828 -81.2935 -0.0001 -25.1382 -0.0000 -11.6519 -31.2548 19.6068 -0.0000 -0.0000 0.0000 -0.0000 -0.0000 0.0000 7.8573 -7.9879 -10.0406 -41.1838 36.5319 97.5372 -0.0000 9.8709 0.0000 70.9107 -78.9889 -123.4165 -0.0000 0.0000 -0.0000 -0.0000 0.0000 -0.0000
 -46.8270 35.1115 -4.0565 14.5544 79.8936 -16.3320 -27.5426 12.2137 7.8527 30.1045 -0.0000 0.0000 -0.0343 -5.4655 1.8562 -12.4165 0.0000 0.0000 15.3818 -3.3857 -3.4706 25.1415 0.0000 -0.0000 17.8394 -0.7276 10.5342 -45.7129 0.0000 0.0000 -2.2527 0.5533 -0.2310 13.1927 -4.4916 -1.6059 -10.7091 9.1829 2.1107 -8.5656 -6.3272 -2.8941 -9.1492 24.0601 23.2563 12.4396 -28.7468 -82.0816 -0.0001 -22.7705 -0.0000 -9.7861 -31.5315 21.6720 -0.0000 0.0000 -0.0000 -0.0000 0.0000 -0.0000 8.9756 -9.8216 -10.7353 -38.1685 37.0261 96.8862 -0.0001 13.8647 0.0000 62.3450 -78.9476 -129.6441 -0.0000 0.0000 -0.0000 -0.0000 0.0000 -0.0000
 -43.0255 35.2098 -4.4832 2.7751 78.4898 -1.8777 -18.6857 17.3714 4.8182 30.9963 0.0000 0.0000 -7.2239 -8.0591 0.8833 -13.2387 -0.0000 -0.0000 8.8627 -5.4755 -8.7298 43.3455 -0.0000 0.0000 27.0096 -6.0611 17.2167 11.5384 0.0000 -0.0000 -1.7454 0.6432 -1.9490 12.6148 -4.8618 -3.4733 -9.9224 9.4257 1.6559 -8.6430 -5.9689 -1.4215 -9.6159 23.4428 23.6576 10.6623 -26.0723 -82.6551 -0.0001 -25.7831 -0.0000 -10.5711 -33.3285 24.9184 -0.0000 0.0000 -0.0000 -0.0000 0.0000 -0.0000 11.2860 -11.1313 -10.8773 -36.8573 37.6071 96.0659 -0.0001 14.7060 0.0000 62.0442 -77.7257 -129.1926 -0.0000 0.0000 -0.0000 -0.0000 0.0000 -0.0000
 -39.9150 35.9903 -4.6133 -1.2731 78.5665 2.8115 -8.9255 19.9569 2.3257 24.4140 -0.0000 0.0000 -5.1630 -10.6246 0.9128 -16.9525 -0.0000 -0.0000 -0.1673 -7.9297 -9.9233 54.0895 -0.0000 0.0000 21.7844 -14.0130 13.0605 -9.9115 -0.0000 -0.0000 -0.9636 -0.2351 -2.6317 11.9636 -5.6623 -3.6998 -9.3382 9.2933 1.4979 -8.3865 -6.1558 -0.6307 -10.1701 22.5925 23.9459 7.7821 -25.1051 -83.2888 -0.0001 -32.8820 -0.0000 -10.1808 -35.6609 28.0630 -0.0000 0.0000 -0.0000 -0.0000 0.0000 -0.0000 12.7006 -12.6327 -11.2441 -35.3959 36.5723 96.3149 -0.0001 14.3032 0.0000 66.0299 -78.7288 -125.8704 -0.0000 0.0000 -0.0000 -0.0000 0.0000 -0.0000
 -37.0956 37.0422 -4.4991 -3.8366 78.5807 4.2331 -0.1556 20.7344 1.6418 16.1143 -0.0000 0.0000 2.6907 -12.2209 0.9586 -22.8440 0.0000 -0.0000 -8.2906 -8.0641 -6.5976 53.8867 -0.0000 0.0000 11.3412 -15.2159 8.6885 -9.1002 0.0000 -0.0000 -0.8357 -0.9590 -2.4622 12.5703 -5.9340 -2.7849 -8.7895 9.3087 1.7060 -7.6945 -6.5123 -0.2216 -10.7240 21.8188 24.6777 3.7806 -24.3481 -84.6930 -0.0002 -40.8950 -0.0001 -11.0306 -37.6298 29.4495 -0.0000 0.0000 -0.0000 -0.0000 0.0000 -0.0000 13.8357 -13.2181 -10.9600 -33.7496 36.8636 96.1561 -0.0000 12.6840 0.0000 66.3508 -78.1393 -124.2491 -0.0000 0.0000 -0.0000 -0.0000 0.0000 -0.0000
 -34.3844 37.4655 -4.3478 -3.9553 78.8389 3.8369 6.6817 22.0654 0.8383 10.5353 0.0000 0.0000 7.9500 -14.1497 1.2068 -27.8195 -0.0000 -0.0000 -14.9140 -7.1428 -3.1691 44.8696 -0.0000 0.0000 5.7357 -9.8986 6.5126 -9.5826 -0.0000 0.0000 -0.3126 -1.7724 -2.4752 12.2854 -6.3422 -1.9599 -8.9674 9.5286 2.1382 -5.9454 -6.5378 -0.3886 -11.7242 20.8072 25.5318 1.1368 -25.8118 -84.5259 -0.0002 -48.8953 -0.0001 -12.9029 -38.2364 28.7233 -0.0000 0.0000 -0.0000 -0.0000 0.0000 -0.0000 14.4503 -13.9236 -10.9938 -32.4062 35.4487 96.2229 -0.0000 11.5348 0.0000 91.0391 -76.6352 -107.5338 -0.0000 0.0000 -0.0000 -0.0000 0.0000 -0.0000
 -31.6929 36.9540 -4.2559 1.8937 78.2027 -1.3974 12.3582 24.2658 -1.0347 7.3149 0.0000 -0.0000 6.1605 -16.3864 -0.4384 -29.0356 0.0000 -0.0000 -20.3311 -4.1227 -1.3942 28.7723 -0.0000 0.0000 7.7666 -2.0710 6.2952 -10.6696 0.0000 0.0000 -0.7631 -1.8826 -2.4012 12.4247 -6.5162 -2.0565 -9.1177 9.7798 2.2533 -6.6269 -6.3478 -0.1212 -12.3990 20.0709 25.1416 -1.2427 -28.4201 -81.6516 -0.0003 -56.1750 -0.0002 -13.4811 -38.4006 28.0662 -0.0000 0.0000 -0.0000 -0.0000 0.0000 -0.0000 15.3180 -13.9693 -9.8272 -31.9020 33.8931 95.4258 -0.0000 10.2638 0.0000 97.8710 -77.8185 -103.3929 -0.0000 0.0000 -0.0000 -0.0000 0.0000 -0.0000
 -28.7782 35.9810 -4.0554 9.2130 78.7762 -7.7164 16.7412 24.8408 -2.4021 7.1458 -0.0000 0.0000 1.6745 -18.1242 -2.2778 -29.8476 0.0000 -0.0000 -23.1632 -1.9380 -0.8541 11.3407 -0.0000 0.0000 16.0959 -1.2579 7.4531 -11.3772 -0.0000 0.0000 -1.6686 -1.9710 -2.4458 13.0103 -6.7002 -2.1487 -10.1433 9.7199 2.9614 -7.6331 -6.7821 -0.1360 -12.8464 19.0191 25.0303 -3.9794 -30.0111 -80.0098 -0.0004 -59.3390 -0.0002 -12.8614 -38.2826 28.2934 -0.0000 -0.0000 0.0000 -0.0000 -0.0000 0.0000 16.3463 -14.0661 -8.2475 -31.8701 32.8303 94.4317 -0.0000 8.5213 0.0000 96.3291 -77.5670 -104.9476 -0.0000 0.0000 -0.0000 -0.0000 0.0000 -0.0000
